<svg width="28" height="28" viewBox="0 0 28 28" fill="none" xmlns="http://www.w3.org/2000/svg">
<path d="M20.9767 12.5883V17.255C20.9767 17.5583 20.965 17.85 20.93 18.13C20.6617 21.28 18.8067 22.8433 15.3883 22.8433H14.9217C14.63 22.8433 14.35 22.9833 14.175 23.2167L12.775 25.0833C12.1567 25.9117 11.1533 25.9117 10.535 25.0833L9.13498 23.2167C8.98331 23.0183 8.645 22.8433 8.38833 22.8433H7.92167C4.2 22.8433 2.33333 21.9217 2.33333 17.255V12.5883C2.33333 9.17001 3.90834 7.31501 7.04667 7.04668C7.32667 7.01168 7.61834 7 7.92167 7H15.3883C19.11 7 20.9767 8.86668 20.9767 12.5883Z" stroke="#7C7C7C" stroke-width="1.5" stroke-miterlimit="10" stroke-linecap="round" stroke-linejoin="round"/>
<path d="M25.6433 7.92169V12.5884C25.6433 16.0184 24.0683 17.8617 20.93 18.13C20.965 17.85 20.9767 17.5584 20.9767 17.255V12.5884C20.9767 8.86669 19.11 7.00001 15.3883 7.00001H7.92168C7.61834 7.00001 7.32668 7.01169 7.04668 7.04669C7.31501 3.90835 9.17001 2.33334 12.5883 2.33334H20.055C23.7767 2.33334 25.6433 4.20002 25.6433 7.92169Z" stroke="#7C7C7C" stroke-width="1.5" stroke-miterlimit="10" stroke-linecap="round" stroke-linejoin="round"/>
<path d="M15.7448 15.4583H15.7553" stroke="#7C7C7C" stroke-width="2" stroke-linecap="round" stroke-linejoin="round"/>
<path d="M11.6614 15.4583H11.6719" stroke="#7C7C7C" stroke-width="2" stroke-linecap="round" stroke-linejoin="round"/>
<path d="M7.57808 15.4583H7.58858" stroke="#7C7C7C" stroke-width="2" stroke-linecap="round" stroke-linejoin="round"/>
</svg>
